<?xml version="1.0" encoding="UTF-8"?>
<svg xmlns="http://www.w3.org/2000/svg" width="345" height="257">
   <defs>
      <style type="text/css">
    @namespace "http://www.w3.org/2000/svg";
    .line                 {fill: none; stroke: #332900; stroke-width: 1;}
    .bold-line            {stroke: #141000; shape-rendering: crispEdges; stroke-width: 2;}
    .thin-line            {stroke: #1F1800; shape-rendering: crispEdges}
    .filled               {fill: #332900; stroke: none;}
    text.terminal         {font-family: Verdana, Sans-serif;
                            font-size: 12px;
                            fill: #141000;
                            font-weight: bold;
                          }
    text.nonterminal      {font-family: Verdana, Sans-serif;
                            font-size: 12px;
                            fill: #1A1400;
                            font-weight: normal;
                          }
    text.regexp           {font-family: Verdana, Sans-serif;
                            font-size: 12px;
                            fill: #1F1800;
                            font-weight: normal;
                          }
    rect, circle, polygon {fill: #332900; stroke: #332900;}
    rect.terminal         {fill: #FFDB4D; stroke: #332900; stroke-width: 1;}
    rect.nonterminal      {fill: #FFEC9E; stroke: #332900; stroke-width: 1;}
    rect.text             {fill: none; stroke: none;}
    polygon.regexp        {fill: #FFF4C7; stroke: #332900; stroke-width: 1;}
  </style>
   </defs>
   <polygon points="9 17 1 13 1 21"/>
   <polygon points="17 17 9 13 9 21"/>
   <a xmlns:xlink="http://www.w3.org/1999/xlink"
      xlink:href="#INT"
      xlink:title="INT">
      <rect x="51" y="3" width="40" height="32"/>
      <rect x="49" y="1" width="40" height="32" class="nonterminal"/>
      <text class="nonterminal" x="59" y="21">INT</text>
   </a>
   <a xmlns:xlink="http://www.w3.org/1999/xlink"
      xlink:href="#expr"
      xlink:title="expr">
      <rect x="71" y="47" width="48" height="32"/>
      <rect x="69" y="45" width="48" height="32" class="nonterminal"/>
      <text class="nonterminal" x="79" y="65">expr</text>
   </a>
   <rect x="159" y="47" width="30" height="32" rx="10"/>
   <rect x="157"
         y="45"
         width="30"
         height="32"
         class="terminal"
         rx="10"/>
   <text class="terminal" x="167" y="65">+</text>
   <rect x="159" y="91" width="26" height="32" rx="10"/>
   <rect x="157"
         y="89"
         width="26"
         height="32"
         class="terminal"
         rx="10"/>
   <text class="terminal" x="167" y="109">-</text>
   <rect x="159" y="135" width="28" height="32" rx="10"/>
   <rect x="157"
         y="133"
         width="28"
         height="32"
         class="terminal"
         rx="10"/>
   <text class="terminal" x="167" y="153">*</text>
   <rect x="159" y="179" width="28" height="32" rx="10"/>
   <rect x="157"
         y="177"
         width="28"
         height="32"
         class="terminal"
         rx="10"/>
   <text class="terminal" x="167" y="197">/</text>
   <rect x="71" y="223" width="26" height="32" rx="10"/>
   <rect x="69"
         y="221"
         width="26"
         height="32"
         class="terminal"
         rx="10"/>
   <text class="terminal" x="79" y="241">-</text>
   <a xmlns:xlink="http://www.w3.org/1999/xlink"
      xlink:href="#expr"
      xlink:title="expr">
      <rect x="249" y="47" width="48" height="32"/>
      <rect x="247" y="45" width="48" height="32" class="nonterminal"/>
      <text class="nonterminal" x="257" y="65">expr</text>
   </a>
   <path class="line"
         d="m17 17 h2 m20 0 h10 m40 0 h10 m0 0 h206 m-286 0 h20 m266 0 h20 m-306 0 q10 0 10 10 m286 0 q0 -10 10 -10 m-296 10 v24 m286 0 v-24 m-286 24 q0 10 10 10 m266 0 q10 0 10 -10 m-256 10 h10 m48 0 h10 m20 0 h10 m30 0 h10 m-70 0 h20 m50 0 h20 m-90 0 q10 0 10 10 m70 0 q0 -10 10 -10 m-80 10 v24 m70 0 v-24 m-70 24 q0 10 10 10 m50 0 q10 0 10 -10 m-60 10 h10 m26 0 h10 m0 0 h4 m-60 -10 v20 m70 0 v-20 m-70 20 v24 m70 0 v-24 m-70 24 q0 10 10 10 m50 0 q10 0 10 -10 m-60 10 h10 m28 0 h10 m0 0 h2 m-60 -10 v20 m70 0 v-20 m-70 20 v24 m70 0 v-24 m-70 24 q0 10 10 10 m50 0 q10 0 10 -10 m-60 10 h10 m28 0 h10 m0 0 h2 m-158 -132 h20 m158 0 h20 m-198 0 q10 0 10 10 m178 0 q0 -10 10 -10 m-188 10 v156 m178 0 v-156 m-178 156 q0 10 10 10 m158 0 q10 0 10 -10 m-168 10 h10 m26 0 h10 m0 0 h112 m20 -176 h10 m48 0 h10 m23 -44 h-3"/>
   <polygon points="335 17 343 13 343 21"/>
   <polygon points="335 17 327 13 327 21"/>
</svg>
