<?xml version="1.0" encoding="UTF-8"?>
<svg xmlns="http://www.w3.org/2000/svg" width="335" height="97">
   <defs>
      <style type="text/css">
    @namespace "http://www.w3.org/2000/svg";
    .line                 {fill: none; stroke: #332900; stroke-width: 1;}
    .bold-line            {stroke: #141000; shape-rendering: crispEdges; stroke-width: 2;}
    .thin-line            {stroke: #1F1800; shape-rendering: crispEdges}
    .filled               {fill: #332900; stroke: none;}
    text.terminal         {font-family: Verdana, Sans-serif;
                            font-size: 12px;
                            fill: #141000;
                            font-weight: bold;
                          }
    text.nonterminal      {font-family: Verdana, Sans-serif;
                            font-size: 12px;
                            fill: #1A1400;
                            font-weight: normal;
                          }
    text.regexp           {font-family: Verdana, Sans-serif;
                            font-size: 12px;
                            fill: #1F1800;
                            font-weight: normal;
                          }
    rect, circle, polygon {fill: #332900; stroke: #332900;}
    rect.terminal         {fill: #FFDB4D; stroke: #332900; stroke-width: 1;}
    rect.nonterminal      {fill: #FFEC9E; stroke: #332900; stroke-width: 1;}
    rect.text             {fill: none; stroke: none;}
    polygon.regexp        {fill: #FFF4C7; stroke: #332900; stroke-width: 1;}
  </style>
   </defs>
   <polygon points="9 61 1 57 1 65"/>
   <polygon points="17 61 9 57 9 65"/>
   <a xmlns:xlink="http://www.w3.org/1999/xlink"
      xlink:href="#fid"
      xlink:title="fid">
      <rect x="31" y="47" width="36" height="32"/>
      <rect x="29" y="45" width="36" height="32" class="nonterminal"/>
      <text class="nonterminal" x="39" y="65">fid</text>
   </a>
   <rect x="87" y="47" width="26" height="32" rx="10"/>
   <rect x="85"
         y="45"
         width="26"
         height="32"
         class="terminal"
         rx="10"/>
   <text class="terminal" x="95" y="65">(</text>
   <a xmlns:xlink="http://www.w3.org/1999/xlink"
      xlink:href="#expr"
      xlink:title="expr">
      <rect x="173" y="47" width="48" height="32"/>
      <rect x="171" y="45" width="48" height="32" class="nonterminal"/>
      <text class="nonterminal" x="181" y="65">expr</text>
   </a>
   <rect x="173" y="3" width="24" height="32" rx="10"/>
   <rect x="171"
         y="1"
         width="24"
         height="32"
         class="terminal"
         rx="10"/>
   <text class="terminal" x="181" y="21">,</text>
   <rect x="281" y="47" width="26" height="32" rx="10"/>
   <rect x="279"
         y="45"
         width="26"
         height="32"
         class="terminal"
         rx="10"/>
   <text class="terminal" x="289" y="65">)</text>
   <path class="line"
         d="m17 61 h2 m0 0 h10 m36 0 h10 m0 0 h10 m26 0 h10 m40 0 h10 m48 0 h10 m-88 0 l20 0 m-1 0 q-9 0 -9 -10 l0 -24 q0 -10 10 -10 m68 44 l20 0 m-20 0 q10 0 10 -10 l0 -24 q0 -10 -10 -10 m-68 0 h10 m24 0 h10 m0 0 h24 m-108 44 h20 m108 0 h20 m-148 0 q10 0 10 10 m128 0 q0 -10 10 -10 m-138 10 v14 m128 0 v-14 m-128 14 q0 10 10 10 m108 0 q10 0 10 -10 m-118 10 h10 m0 0 h98 m20 -34 h10 m26 0 h10 m3 0 h-3"/>
   <polygon points="325 61 333 57 333 65"/>
   <polygon points="325 61 317 57 317 65"/>
</svg>
