<?xml version="1.0" encoding="UTF-8"?>
<svg xmlns="http://www.w3.org/2000/svg" width="623" height="69">
   <defs>
      <style type="text/css">
    @namespace "http://www.w3.org/2000/svg";
    .line                 {fill: none; stroke: #332900; stroke-width: 1;}
    .bold-line            {stroke: #141000; shape-rendering: crispEdges; stroke-width: 2;}
    .thin-line            {stroke: #1F1800; shape-rendering: crispEdges}
    .filled               {fill: #332900; stroke: none;}
    text.terminal         {font-family: Verdana, Sans-serif;
                            font-size: 12px;
                            fill: #141000;
                            font-weight: bold;
                          }
    text.nonterminal      {font-family: Verdana, Sans-serif;
                            font-size: 12px;
                            fill: #1A1400;
                            font-weight: normal;
                          }
    text.regexp           {font-family: Verdana, Sans-serif;
                            font-size: 12px;
                            fill: #1F1800;
                            font-weight: normal;
                          }
    rect, circle, polygon {fill: #332900; stroke: #332900;}
    rect.terminal         {fill: #FFDB4D; stroke: #332900; stroke-width: 1;}
    rect.nonterminal      {fill: #FFEC9E; stroke: #332900; stroke-width: 1;}
    rect.text             {fill: none; stroke: none;}
    polygon.regexp        {fill: #FFF4C7; stroke: #332900; stroke-width: 1;}
  </style>
   </defs>
   <polygon points="9 17 1 13 1 21"/>
   <polygon points="17 17 9 13 9 21"/>
   <rect x="31" y="3" width="74" height="32" rx="10"/>
   <rect x="29"
         y="1"
         width="74"
         height="32"
         class="terminal"
         rx="10"/>
   <text class="terminal" x="39" y="21">function</text>
   <a xmlns:xlink="http://www.w3.org/1999/xlink"
      xlink:href="#ID"
      xlink:title="ID">
      <rect x="125" y="3" width="34" height="32"/>
      <rect x="123" y="1" width="34" height="32" class="nonterminal"/>
      <text class="nonterminal" x="133" y="21">ID</text>
   </a>
   <rect x="179" y="3" width="26" height="32" rx="10"/>
   <rect x="177"
         y="1"
         width="26"
         height="32"
         class="terminal"
         rx="10"/>
   <text class="terminal" x="187" y="21">(</text>
   <a xmlns:xlink="http://www.w3.org/1999/xlink"
      xlink:href="#tyfields"
      xlink:title="tyfields">
      <rect x="225" y="3" width="66" height="32"/>
      <rect x="223" y="1" width="66" height="32" class="nonterminal"/>
      <text class="nonterminal" x="233" y="21">tyfields</text>
   </a>
   <rect x="311" y="3" width="26" height="32" rx="10"/>
   <rect x="309"
         y="1"
         width="26"
         height="32"
         class="terminal"
         rx="10"/>
   <text class="terminal" x="319" y="21">)</text>
   <rect x="377" y="35" width="24" height="32" rx="10"/>
   <rect x="375"
         y="33"
         width="24"
         height="32"
         class="terminal"
         rx="10"/>
   <text class="terminal" x="385" y="53">:</text>
   <a xmlns:xlink="http://www.w3.org/1999/xlink"
      xlink:href="#tid"
      xlink:title="tid">
      <rect x="421" y="35" width="36" height="32"/>
      <rect x="419" y="33" width="36" height="32" class="nonterminal"/>
      <text class="nonterminal" x="429" y="53">tid</text>
   </a>
   <rect x="497" y="3" width="30" height="32" rx="10"/>
   <rect x="495"
         y="1"
         width="30"
         height="32"
         class="terminal"
         rx="10"/>
   <text class="terminal" x="505" y="21">=</text>
   <a xmlns:xlink="http://www.w3.org/1999/xlink"
      xlink:href="#expr"
      xlink:title="expr">
      <rect x="547" y="3" width="48" height="32"/>
      <rect x="545" y="1" width="48" height="32" class="nonterminal"/>
      <text class="nonterminal" x="555" y="21">expr</text>
   </a>
   <path class="line"
         d="m17 17 h2 m0 0 h10 m74 0 h10 m0 0 h10 m34 0 h10 m0 0 h10 m26 0 h10 m0 0 h10 m66 0 h10 m0 0 h10 m26 0 h10 m20 0 h10 m0 0 h90 m-120 0 h20 m100 0 h20 m-140 0 q10 0 10 10 m120 0 q0 -10 10 -10 m-130 10 v12 m120 0 v-12 m-120 12 q0 10 10 10 m100 0 q10 0 10 -10 m-110 10 h10 m24 0 h10 m0 0 h10 m36 0 h10 m20 -32 h10 m30 0 h10 m0 0 h10 m48 0 h10 m3 0 h-3"/>
   <polygon points="613 17 621 13 621 21"/>
   <polygon points="613 17 605 13 605 21"/>
</svg>
