<?xml version="1.0" encoding="UTF-8"?>
<svg xmlns="http://www.w3.org/2000/svg" width="699" height="85">
   <defs>
      <style type="text/css">
    @namespace "http://www.w3.org/2000/svg";
    .line                 {fill: none; stroke: #332900; stroke-width: 1;}
    .bold-line            {stroke: #141000; shape-rendering: crispEdges; stroke-width: 2;}
    .thin-line            {stroke: #1F1800; shape-rendering: crispEdges}
    .filled               {fill: #332900; stroke: none;}
    text.terminal         {font-family: Verdana, Sans-serif;
                            font-size: 12px;
                            fill: #141000;
                            font-weight: bold;
                          }
    text.nonterminal      {font-family: Verdana, Sans-serif;
                            font-size: 12px;
                            fill: #1A1400;
                            font-weight: normal;
                          }
    text.regexp           {font-family: Verdana, Sans-serif;
                            font-size: 12px;
                            fill: #1F1800;
                            font-weight: normal;
                          }
    rect, circle, polygon {fill: #332900; stroke: #332900;}
    rect.terminal         {fill: #FFDB4D; stroke: #332900; stroke-width: 1;}
    rect.nonterminal      {fill: #FFEC9E; stroke: #332900; stroke-width: 1;}
    rect.text             {fill: none; stroke: none;}
    polygon.regexp        {fill: #FFF4C7; stroke: #332900; stroke-width: 1;}
  </style>
   </defs>
   <polygon points="9 33 1 29 1 37"/>
   <polygon points="17 33 9 29 9 37"/>
   <a xmlns:xlink="http://www.w3.org/1999/xlink"
      xlink:href="#tid"
      xlink:title="tid">
      <rect x="31" y="19" width="36" height="32"/>
      <rect x="29" y="17" width="36" height="32" class="nonterminal"/>
      <text class="nonterminal" x="39" y="37">tid</text>
   </a>
   <rect x="87" y="19" width="28" height="32" rx="10"/>
   <rect x="85"
         y="17"
         width="28"
         height="32"
         class="terminal"
         rx="10"/>
   <text class="terminal" x="95" y="37">{</text>
   <a xmlns:xlink="http://www.w3.org/1999/xlink"
      xlink:href="#ID"
      xlink:title="ID">
      <rect x="155" y="51" width="34" height="32"/>
      <rect x="153" y="49" width="34" height="32" class="nonterminal"/>
      <text class="nonterminal" x="163" y="69">ID</text>
   </a>
   <rect x="209" y="51" width="30" height="32" rx="10"/>
   <rect x="207"
         y="49"
         width="30"
         height="32"
         class="terminal"
         rx="10"/>
   <text class="terminal" x="217" y="69">=</text>
   <a xmlns:xlink="http://www.w3.org/1999/xlink"
      xlink:href="#expr"
      xlink:title="expr">
      <rect x="259" y="51" width="48" height="32"/>
      <rect x="257" y="49" width="48" height="32" class="nonterminal"/>
      <text class="nonterminal" x="267" y="69">expr</text>
   </a>
   <rect x="387" y="19" width="24" height="32" rx="10"/>
   <rect x="385"
         y="17"
         width="24"
         height="32"
         class="terminal"
         rx="10"/>
   <text class="terminal" x="395" y="37">,</text>
   <a xmlns:xlink="http://www.w3.org/1999/xlink"
      xlink:href="#ID"
      xlink:title="ID">
      <rect x="431" y="19" width="34" height="32"/>
      <rect x="429" y="17" width="34" height="32" class="nonterminal"/>
      <text class="nonterminal" x="439" y="37">ID</text>
   </a>
   <rect x="485" y="19" width="30" height="32" rx="10"/>
   <rect x="483"
         y="17"
         width="30"
         height="32"
         class="terminal"
         rx="10"/>
   <text class="terminal" x="493" y="37">=</text>
   <a xmlns:xlink="http://www.w3.org/1999/xlink"
      xlink:href="#expr"
      xlink:title="expr">
      <rect x="535" y="19" width="48" height="32"/>
      <rect x="533" y="17" width="48" height="32" class="nonterminal"/>
      <text class="nonterminal" x="543" y="37">expr</text>
   </a>
   <rect x="643" y="19" width="28" height="32" rx="10"/>
   <rect x="641"
         y="17"
         width="28"
         height="32"
         class="terminal"
         rx="10"/>
   <text class="terminal" x="651" y="37">}</text>
   <path class="line"
         d="m17 33 h2 m0 0 h10 m36 0 h10 m0 0 h10 m28 0 h10 m20 0 h10 m0 0 h162 m-192 0 h20 m172 0 h20 m-212 0 q10 0 10 10 m192 0 q0 -10 10 -10 m-202 10 v12 m192 0 v-12 m-192 12 q0 10 10 10 m172 0 q10 0 10 -10 m-182 10 h10 m34 0 h10 m0 0 h10 m30 0 h10 m0 0 h10 m48 0 h10 m60 -32 h10 m24 0 h10 m0 0 h10 m34 0 h10 m0 0 h10 m30 0 h10 m0 0 h10 m48 0 h10 m-236 0 l20 0 m-1 0 q-9 0 -9 -10 l0 -12 q0 -10 10 -10 m216 32 l20 0 m-20 0 q10 0 10 -10 l0 -12 q0 -10 -10 -10 m-216 0 h10 m0 0 h206 m-256 32 h20 m256 0 h20 m-296 0 q10 0 10 10 m276 0 q0 -10 10 -10 m-286 10 v14 m276 0 v-14 m-276 14 q0 10 10 10 m256 0 q10 0 10 -10 m-266 10 h10 m0 0 h246 m20 -34 h10 m28 0 h10 m3 0 h-3"/>
   <polygon points="689 33 697 29 697 37"/>
   <polygon points="689 33 681 29 681 37"/>
</svg>
