<?xml version="1.0" encoding="UTF-8"?>
<svg xmlns="http://www.w3.org/2000/svg" width="423" height="81">
   <defs>
      <style type="text/css">
    @namespace "http://www.w3.org/2000/svg";
    .line                 {fill: none; stroke: #332900; stroke-width: 1;}
    .bold-line            {stroke: #141000; shape-rendering: crispEdges; stroke-width: 2;}
    .thin-line            {stroke: #1F1800; shape-rendering: crispEdges}
    .filled               {fill: #332900; stroke: none;}
    text.terminal         {font-family: Verdana, Sans-serif;
                            font-size: 12px;
                            fill: #141000;
                            font-weight: bold;
                          }
    text.nonterminal      {font-family: Verdana, Sans-serif;
                            font-size: 12px;
                            fill: #1A1400;
                            font-weight: normal;
                          }
    text.regexp           {font-family: Verdana, Sans-serif;
                            font-size: 12px;
                            fill: #1F1800;
                            font-weight: normal;
                          }
    rect, circle, polygon {fill: #332900; stroke: #332900;}
    rect.terminal         {fill: #FFDB4D; stroke: #332900; stroke-width: 1;}
    rect.nonterminal      {fill: #FFEC9E; stroke: #332900; stroke-width: 1;}
    rect.text             {fill: none; stroke: none;}
    polygon.regexp        {fill: #FFF4C7; stroke: #332900; stroke-width: 1;}
  </style>
   </defs>
   <polygon points="9 61 1 57 1 65"/>
   <polygon points="17 61 9 57 9 65"/>
   <rect x="31" y="47" width="38" height="32" rx="10"/>
   <rect x="29"
         y="45"
         width="38"
         height="32"
         class="terminal"
         rx="10"/>
   <text class="terminal" x="39" y="65">let</text>
   <a xmlns:xlink="http://www.w3.org/1999/xlink"
      xlink:href="#dec"
      xlink:title="dec">
      <rect x="109" y="13" width="42" height="32"/>
      <rect x="107" y="11" width="42" height="32" class="nonterminal"/>
      <text class="nonterminal" x="117" y="31">dec</text>
   </a>
   <rect x="191" y="47" width="32" height="32" rx="10"/>
   <rect x="189"
         y="45"
         width="32"
         height="32"
         class="terminal"
         rx="10"/>
   <text class="terminal" x="199" y="65">in</text>
   <a xmlns:xlink="http://www.w3.org/1999/xlink"
      xlink:href="#expr"
      xlink:title="expr">
      <rect x="263" y="47" width="48" height="32"/>
      <rect x="261" y="45" width="48" height="32" class="nonterminal"/>
      <text class="nonterminal" x="271" y="65">expr</text>
   </a>
   <rect x="263" y="3" width="24" height="32" rx="10"/>
   <rect x="261"
         y="1"
         width="24"
         height="32"
         class="terminal"
         rx="10"/>
   <text class="terminal" x="271" y="21">;</text>
   <rect x="351" y="47" width="44" height="32" rx="10"/>
   <rect x="349"
         y="45"
         width="44"
         height="32"
         class="terminal"
         rx="10"/>
   <text class="terminal" x="359" y="65">end</text>
   <path class="line"
         d="m17 61 h2 m0 0 h10 m38 0 h10 m20 0 h10 m0 0 h52 m-82 0 l20 0 m-1 0 q-9 0 -9 -10 l0 -14 q0 -10 10 -10 m62 34 l20 0 m-20 0 q10 0 10 -10 l0 -14 q0 -10 -10 -10 m-62 0 h10 m42 0 h10 m20 34 h10 m32 0 h10 m20 0 h10 m48 0 h10 m-88 0 l20 0 m-1 0 q-9 0 -9 -10 l0 -24 q0 -10 10 -10 m68 44 l20 0 m-20 0 q10 0 10 -10 l0 -24 q0 -10 -10 -10 m-68 0 h10 m24 0 h10 m0 0 h24 m20 44 h10 m44 0 h10 m3 0 h-3"/>
   <polygon points="413 61 421 57 421 65"/>
   <polygon points="413 61 405 57 405 65"/>
</svg>
