<?xml version="1.0" encoding="UTF-8"?>
<svg xmlns="http://www.w3.org/2000/svg" width="373" height="113">
   <defs>
      <style type="text/css">
    @namespace "http://www.w3.org/2000/svg";
    .line                 {fill: none; stroke: #332900; stroke-width: 1;}
    .bold-line            {stroke: #141000; shape-rendering: crispEdges; stroke-width: 2;}
    .thin-line            {stroke: #1F1800; shape-rendering: crispEdges}
    .filled               {fill: #332900; stroke: none;}
    text.terminal         {font-family: Verdana, Sans-serif;
                            font-size: 12px;
                            fill: #141000;
                            font-weight: bold;
                          }
    text.nonterminal      {font-family: Verdana, Sans-serif;
                            font-size: 12px;
                            fill: #1A1400;
                            font-weight: normal;
                          }
    text.regexp           {font-family: Verdana, Sans-serif;
                            font-size: 12px;
                            fill: #1F1800;
                            font-weight: normal;
                          }
    rect, circle, polygon {fill: #332900; stroke: #332900;}
    rect.terminal         {fill: #FFDB4D; stroke: #332900; stroke-width: 1;}
    rect.nonterminal      {fill: #FFEC9E; stroke: #332900; stroke-width: 1;}
    rect.text             {fill: none; stroke: none;}
    polygon.regexp        {fill: #FFF4C7; stroke: #332900; stroke-width: 1;}
  </style>
   </defs>
   <polygon points="9 33 1 29 1 37"/>
   <polygon points="17 33 9 29 9 37"/>
   <a xmlns:xlink="http://www.w3.org/1999/xlink"
      xlink:href="#ID"
      xlink:title="ID">
      <rect x="31" y="19" width="34" height="32"/>
      <rect x="29" y="17" width="34" height="32" class="nonterminal"/>
      <text class="nonterminal" x="39" y="37">ID</text>
   </a>
   <rect x="145" y="19" width="24" height="32" rx="10"/>
   <rect x="143"
         y="17"
         width="24"
         height="32"
         class="terminal"
         rx="10"/>
   <text class="terminal" x="153" y="37">.</text>
   <a xmlns:xlink="http://www.w3.org/1999/xlink"
      xlink:href="#ID"
      xlink:title="ID">
      <rect x="189" y="19" width="34" height="32"/>
      <rect x="187" y="17" width="34" height="32" class="nonterminal"/>
      <text class="nonterminal" x="197" y="37">ID</text>
   </a>
   <rect x="145" y="63" width="26" height="32" rx="10"/>
   <rect x="143"
         y="61"
         width="26"
         height="32"
         class="terminal"
         rx="10"/>
   <text class="terminal" x="153" y="81">[</text>
   <a xmlns:xlink="http://www.w3.org/1999/xlink"
      xlink:href="#expr"
      xlink:title="expr">
      <rect x="191" y="63" width="48" height="32"/>
      <rect x="189" y="61" width="48" height="32" class="nonterminal"/>
      <text class="nonterminal" x="199" y="81">expr</text>
   </a>
   <rect x="259" y="63" width="26" height="32" rx="10"/>
   <rect x="257"
         y="61"
         width="26"
         height="32"
         class="terminal"
         rx="10"/>
   <text class="terminal" x="267" y="81">]</text>
   <path class="line"
         d="m17 33 h2 m0 0 h10 m34 0 h10 m60 0 h10 m24 0 h10 m0 0 h10 m34 0 h10 m0 0 h62 m-180 0 h20 m160 0 h20 m-200 0 q10 0 10 10 m180 0 q0 -10 10 -10 m-190 10 v24 m180 0 v-24 m-180 24 q0 10 10 10 m160 0 q10 0 10 -10 m-170 10 h10 m26 0 h10 m0 0 h10 m48 0 h10 m0 0 h10 m26 0 h10 m-200 -44 l20 0 m-1 0 q-9 0 -9 -10 l0 -12 q0 -10 10 -10 m200 32 l20 0 m-20 0 q10 0 10 -10 l0 -12 q0 -10 -10 -10 m-200 0 h10 m0 0 h190 m-240 32 h20 m240 0 h20 m-280 0 q10 0 10 10 m260 0 q0 -10 10 -10 m-270 10 v58 m260 0 v-58 m-260 58 q0 10 10 10 m240 0 q10 0 10 -10 m-250 10 h10 m0 0 h230 m23 -78 h-3"/>
   <polygon points="363 33 371 29 371 37"/>
   <polygon points="363 33 355 29 355 37"/>
</svg>
