<?xml version="1.0" encoding="UTF-8"?>
<svg xmlns="http://www.w3.org/2000/svg" width="303" height="113">
   <defs>
      <style type="text/css">
    @namespace "http://www.w3.org/2000/svg";
    .line                 {fill: none; stroke: #332900; stroke-width: 1;}
    .bold-line            {stroke: #141000; shape-rendering: crispEdges; stroke-width: 2;}
    .thin-line            {stroke: #1F1800; shape-rendering: crispEdges}
    .filled               {fill: #332900; stroke: none;}
    text.terminal         {font-family: Verdana, Sans-serif;
                            font-size: 12px;
                            fill: #141000;
                            font-weight: bold;
                          }
    text.nonterminal      {font-family: Verdana, Sans-serif;
                            font-size: 12px;
                            fill: #1A1400;
                            font-weight: normal;
                          }
    text.regexp           {font-family: Verdana, Sans-serif;
                            font-size: 12px;
                            fill: #1F1800;
                            font-weight: normal;
                          }
    rect, circle, polygon {fill: #332900; stroke: #332900;}
    rect.terminal         {fill: #FFDB4D; stroke: #332900; stroke-width: 1;}
    rect.nonterminal      {fill: #FFEC9E; stroke: #332900; stroke-width: 1;}
    rect.text             {fill: none; stroke: none;}
    polygon.regexp        {fill: #FFF4C7; stroke: #332900; stroke-width: 1;}
  </style>
   </defs>
   <polygon points="9 17 1 13 1 21"/>
   <polygon points="17 17 9 13 9 21"/>
   <rect x="71" y="35" width="56" height="32" rx="10"/>
   <rect x="69"
         y="33"
         width="56"
         height="32"
         class="terminal"
         rx="10"/>
   <text class="terminal" x="79" y="53">array</text>
   <rect x="147" y="35" width="32" height="32" rx="10"/>
   <rect x="145"
         y="33"
         width="32"
         height="32"
         class="terminal"
         rx="10"/>
   <text class="terminal" x="155" y="53">of</text>
   <a xmlns:xlink="http://www.w3.org/1999/xlink"
      xlink:href="#tid"
      xlink:title="tid">
      <rect x="219" y="3" width="36" height="32"/>
      <rect x="217" y="1" width="36" height="32" class="nonterminal"/>
      <text class="nonterminal" x="227" y="21">tid</text>
   </a>
   <rect x="51" y="79" width="28" height="32" rx="10"/>
   <rect x="49"
         y="77"
         width="28"
         height="32"
         class="terminal"
         rx="10"/>
   <text class="terminal" x="59" y="97">{</text>
   <a xmlns:xlink="http://www.w3.org/1999/xlink"
      xlink:href="#tyfields"
      xlink:title="tyfields">
      <rect x="99" y="79" width="66" height="32"/>
      <rect x="97" y="77" width="66" height="32" class="nonterminal"/>
      <text class="nonterminal" x="107" y="97">tyfields</text>
   </a>
   <rect x="185" y="79" width="28" height="32" rx="10"/>
   <rect x="183"
         y="77"
         width="28"
         height="32"
         class="terminal"
         rx="10"/>
   <text class="terminal" x="193" y="97">}</text>
   <path class="line"
         d="m17 17 h2 m40 0 h10 m0 0 h118 m-148 0 h20 m128 0 h20 m-168 0 q10 0 10 10 m148 0 q0 -10 10 -10 m-158 10 v12 m148 0 v-12 m-148 12 q0 10 10 10 m128 0 q10 0 10 -10 m-138 10 h10 m56 0 h10 m0 0 h10 m32 0 h10 m20 -32 h10 m36 0 h10 m-244 0 h20 m224 0 h20 m-264 0 q10 0 10 10 m244 0 q0 -10 10 -10 m-254 10 v56 m244 0 v-56 m-244 56 q0 10 10 10 m224 0 q10 0 10 -10 m-234 10 h10 m28 0 h10 m0 0 h10 m66 0 h10 m0 0 h10 m28 0 h10 m0 0 h42 m23 -76 h-3"/>
   <polygon points="293 17 301 13 301 21"/>
   <polygon points="293 17 285 13 285 21"/>
</svg>
