<?xml version="1.0" encoding="UTF-8"?>
<svg xmlns="http://www.w3.org/2000/svg" width="511" height="85">
   <defs>
      <style type="text/css">
    @namespace "http://www.w3.org/2000/svg";
    .line                 {fill: none; stroke: #332900; stroke-width: 1;}
    .bold-line            {stroke: #141000; shape-rendering: crispEdges; stroke-width: 2;}
    .thin-line            {stroke: #1F1800; shape-rendering: crispEdges}
    .filled               {fill: #332900; stroke: none;}
    text.terminal         {font-family: Verdana, Sans-serif;
                            font-size: 12px;
                            fill: #141000;
                            font-weight: bold;
                          }
    text.nonterminal      {font-family: Verdana, Sans-serif;
                            font-size: 12px;
                            fill: #1A1400;
                            font-weight: normal;
                          }
    text.regexp           {font-family: Verdana, Sans-serif;
                            font-size: 12px;
                            fill: #1F1800;
                            font-weight: normal;
                          }
    rect, circle, polygon {fill: #332900; stroke: #332900;}
    rect.terminal         {fill: #FFDB4D; stroke: #332900; stroke-width: 1;}
    rect.nonterminal      {fill: #FFEC9E; stroke: #332900; stroke-width: 1;}
    rect.text             {fill: none; stroke: none;}
    polygon.regexp        {fill: #FFF4C7; stroke: #332900; stroke-width: 1;}
  </style>
   </defs>
   <polygon points="9 33 1 29 1 37"/>
   <polygon points="17 33 9 29 9 37"/>
   <a xmlns:xlink="http://www.w3.org/1999/xlink"
      xlink:href="#ID"
      xlink:title="ID">
      <rect x="51" y="51" width="34" height="32"/>
      <rect x="49" y="49" width="34" height="32" class="nonterminal"/>
      <text class="nonterminal" x="59" y="69">ID</text>
   </a>
   <rect x="105" y="51" width="24" height="32" rx="10"/>
   <rect x="103"
         y="49"
         width="24"
         height="32"
         class="terminal"
         rx="10"/>
   <text class="terminal" x="113" y="69">:</text>
   <a xmlns:xlink="http://www.w3.org/1999/xlink"
      xlink:href="#tid"
      xlink:title="tid">
      <rect x="149" y="51" width="36" height="32"/>
      <rect x="147" y="49" width="36" height="32" class="nonterminal"/>
      <text class="nonterminal" x="157" y="69">tid</text>
   </a>
   <rect x="265" y="19" width="24" height="32" rx="10"/>
   <rect x="263"
         y="17"
         width="24"
         height="32"
         class="terminal"
         rx="10"/>
   <text class="terminal" x="273" y="37">,</text>
   <a xmlns:xlink="http://www.w3.org/1999/xlink"
      xlink:href="#ID"
      xlink:title="ID">
      <rect x="309" y="19" width="34" height="32"/>
      <rect x="307" y="17" width="34" height="32" class="nonterminal"/>
      <text class="nonterminal" x="317" y="37">ID</text>
   </a>
   <rect x="363" y="19" width="24" height="32" rx="10"/>
   <rect x="361"
         y="17"
         width="24"
         height="32"
         class="terminal"
         rx="10"/>
   <text class="terminal" x="371" y="37">:</text>
   <a xmlns:xlink="http://www.w3.org/1999/xlink"
      xlink:href="#tid"
      xlink:title="tid">
      <rect x="407" y="19" width="36" height="32"/>
      <rect x="405" y="17" width="36" height="32" class="nonterminal"/>
      <text class="nonterminal" x="415" y="37">tid</text>
   </a>
   <path class="line"
         d="m17 33 h2 m20 0 h10 m0 0 h144 m-174 0 h20 m154 0 h20 m-194 0 q10 0 10 10 m174 0 q0 -10 10 -10 m-184 10 v12 m174 0 v-12 m-174 12 q0 10 10 10 m154 0 q10 0 10 -10 m-164 10 h10 m34 0 h10 m0 0 h10 m24 0 h10 m0 0 h10 m36 0 h10 m60 -32 h10 m24 0 h10 m0 0 h10 m34 0 h10 m0 0 h10 m24 0 h10 m0 0 h10 m36 0 h10 m-218 0 l20 0 m-1 0 q-9 0 -9 -10 l0 -12 q0 -10 10 -10 m198 32 l20 0 m-20 0 q10 0 10 -10 l0 -12 q0 -10 -10 -10 m-198 0 h10 m0 0 h188 m-238 32 h20 m238 0 h20 m-278 0 q10 0 10 10 m258 0 q0 -10 10 -10 m-268 10 v14 m258 0 v-14 m-258 14 q0 10 10 10 m238 0 q10 0 10 -10 m-248 10 h10 m0 0 h228 m23 -34 h-3"/>
   <polygon points="501 33 509 29 509 37"/>
   <polygon points="501 33 493 29 493 37"/>
</svg>
